<svg width="140" height="140" viewBox="0 0 140 140" xmlns="http://www.w3.org/2000/svg">
<path d="M1 0H100V99H1V0Z" fill="#F8F8F9"/>
<rect width="64" height="64" transform="translate(18 18)" fill="#F8F8F9"/>
<path d="M55.85 50.1925C64.7397 50.1925 71.9462 42.986 71.9462 34.0963C71.9462 25.2065 64.7397 18 55.85 18C46.9603 18 39.7537 25.2065 39.7537 34.0963C39.7537 42.986 46.9603 50.1925 55.85 50.1925Z" fill="#2A3052"/>
<path d="M68.0838 34.0963C68.0838 34.5038 68.0638 34.9075 68.0238 35.3038C67.9638 35.9263 67.855 36.535 67.7038 37.1263C67.5025 37.9163 67.2225 38.675 66.875 39.395C66.6063 39.9538 66.295 40.4888 65.9475 40.995C65.4912 41.6613 64.9713 42.28 64.395 42.8413C63.9538 43.2738 63.4812 43.6713 62.9787 44.0325C62.3275 44.5013 61.6287 44.9075 60.8913 45.2425C60.3325 45.4963 59.7525 45.7088 59.1525 45.8763C58.3875 46.0925 57.5913 46.2338 56.7738 46.295C56.4688 46.3188 56.1612 46.33 55.85 46.33C55.5387 46.33 55.2313 46.3188 54.9263 46.295C54.1088 46.2338 53.3125 46.0925 52.5475 45.8763C51.9475 45.7088 51.3675 45.4963 50.8088 45.2425C50.0712 44.9075 49.3725 44.5013 48.7213 44.0325C48.2188 43.6713 47.7463 43.2738 47.305 42.8413C46.7288 42.28 46.2088 41.6613 45.7525 40.995C45.4038 40.4888 45.0937 39.9538 44.8237 39.395V39.3938C44.4762 38.675 44.1975 37.9163 43.9963 37.1263C43.845 36.535 43.7363 35.9263 43.6763 35.3038C43.6363 34.9075 43.6162 34.5038 43.6162 34.0963C43.6162 33.6888 43.6363 33.2863 43.6763 32.8888C43.7363 32.2663 43.845 31.6575 43.9963 31.0663C44.1975 30.2775 44.4762 29.5188 44.8237 28.7988V28.7975C45.0937 28.2388 45.4038 27.705 45.7525 27.1975C46.2075 26.5325 46.7275 25.9138 47.3037 25.3525C47.745 24.92 48.2175 24.5225 48.72 24.1613C49.3712 23.6925 50.0712 23.2863 50.8088 22.9513C51.3675 22.6975 51.9475 22.485 52.5475 22.3175C53.3125 22.1013 54.1088 21.96 54.9263 21.8988C55.2313 21.875 55.5387 21.8638 55.85 21.8638C56.1612 21.8638 56.4688 21.875 56.7738 21.8988C57.5913 21.96 58.3875 22.1013 59.1525 22.3175C59.7525 22.485 60.3325 22.6975 60.8913 22.9513C61.6287 23.2863 62.3287 23.6925 62.98 24.1613C63.4825 24.5225 63.955 24.92 64.3963 25.3525C64.9713 25.9138 65.4912 26.5325 65.9475 27.1975C66.2962 27.705 66.6063 28.24 66.8763 28.7988C67.2238 29.5188 67.5025 30.2775 67.7038 31.0663C67.855 31.6575 67.9638 32.2663 68.0238 32.8888C68.0638 33.2863 68.0838 33.6888 68.0838 34.0963Z" fill="#F8F8F9"/>
<path d="M34.0963 74.8475C42.986 74.8475 50.1925 67.641 50.1925 58.7513C50.1925 49.8616 42.986 42.655 34.0963 42.655C25.2065 42.655 18 49.8616 18 58.7513C18 67.641 25.2065 74.8475 34.0963 74.8475Z" fill="#2A3052"/>
<path d="M46.33 58.7512C46.33 59.1587 46.31 59.5612 46.27 59.9587C46.21 60.5812 46.1013 61.19 45.95 61.7812C45.7488 62.57 45.47 63.3287 45.1225 64.0487C44.8525 64.6075 44.5425 65.1425 44.1938 65.65C43.7388 66.315 43.2188 66.9337 42.6425 67.495C42.2013 67.9275 41.7275 68.3262 41.225 68.6875C40.575 69.1562 39.8763 69.5612 39.1388 69.8975C38.58 70.15 37.9988 70.3637 37.4 70.5312C36.6338 70.7475 35.8388 70.8887 35.02 70.95C34.715 70.9737 34.4075 70.985 34.0963 70.985C33.785 70.985 33.4775 70.9737 33.1725 70.95C32.3538 70.8887 31.5588 70.7462 30.7925 70.5312C30.1938 70.3637 29.6138 70.1512 29.055 69.8975C28.3175 69.5625 27.6188 69.1562 26.9675 68.6875C26.465 68.3262 25.9913 67.9275 25.55 67.495C24.975 66.9337 24.455 66.315 23.9988 65.65C23.6513 65.1425 23.3413 64.6087 23.0713 64.05V64.0487C22.7238 63.3287 22.445 62.57 22.2438 61.7812C22.0925 61.19 21.9838 60.5812 21.9238 59.9587C21.8838 59.5612 21.8638 59.1587 21.8638 58.7512C21.8638 58.3437 21.8838 57.9412 21.9238 57.5437C21.9838 56.9212 22.0925 56.3125 22.2438 55.7212C22.445 54.9325 22.7238 54.1737 23.0713 53.4537V53.4525C23.3413 52.8937 23.6513 52.36 23.9988 51.8525C24.455 51.1875 24.975 50.5687 25.55 50.0075C25.9913 49.575 26.4638 49.1775 26.9663 48.8162C27.6175 48.3475 28.3175 47.94 29.055 47.605C29.6138 47.3512 30.1938 47.1387 30.7925 46.9712C31.5588 46.7562 32.3538 46.6137 33.1725 46.5525C33.4775 46.5287 33.785 46.5175 34.0963 46.5175C34.4075 46.5175 34.715 46.5287 35.02 46.5525C35.8388 46.6137 36.6338 46.755 37.4 46.9712C37.9988 47.1387 38.58 47.3525 39.1388 47.605C39.8763 47.9412 40.575 48.3475 41.2263 48.8162C41.7288 49.1775 42.2013 49.575 42.6425 50.0075C43.2188 50.5687 43.7388 51.1875 44.1938 51.8525C44.5425 52.36 44.8525 52.895 45.1225 53.4537C45.47 54.1737 45.7488 54.9325 45.95 55.7212C46.1013 56.3125 46.21 56.9212 46.27 57.5437C46.31 57.9412 46.33 58.3437 46.33 58.7512Z" fill="#F8F8F9"/>
<path d="M65.9037 82C74.7935 82 82 74.7935 82 65.9037C82 57.014 74.7935 49.8075 65.9037 49.8075C57.014 49.8075 49.8075 57.014 49.8075 65.9037C49.8075 74.7935 57.014 82 65.9037 82Z" fill="#2A3052"/>
<path d="M78.1362 65.9037C78.1362 66.3112 78.1162 66.7137 78.0762 67.1112C78.0162 67.7337 77.9075 68.3412 77.7562 68.9325C77.555 69.7225 77.2762 70.4812 76.9287 71.2012V71.2025L76.0013 72.8025C75.545 73.4675 75.025 74.0862 74.45 74.6475C74.0088 75.08 73.535 75.4787 73.0325 75.84C72.3813 76.3087 71.6812 76.715 70.9437 77.0487C70.3862 77.3025 69.8062 77.515 69.2075 77.6825C68.4413 77.8987 67.6462 78.04 66.8275 78.1012C66.5225 78.125 66.215 78.1362 65.9038 78.1362C65.5925 78.1362 65.285 78.125 64.98 78.1012C64.1612 78.04 63.3662 77.8987 62.6 77.6825C62.0012 77.515 61.42 77.3025 60.8625 77.0487C60.125 76.7137 59.4263 76.3087 58.775 75.84C58.2725 75.4787 57.7987 75.08 57.3575 74.6475C56.7812 74.0862 56.2613 73.4675 55.8063 72.8025C55.4575 72.295 55.1475 71.76 54.8775 71.2012C54.53 70.4812 54.2512 69.7225 54.05 68.9325C53.8987 68.3412 53.79 67.7337 53.73 67.1112C53.69 66.7137 53.67 66.3112 53.67 65.9037C53.67 65.4962 53.69 65.0925 53.73 64.6962C53.79 64.0737 53.8987 63.465 54.05 62.8737C54.2512 62.0837 54.53 61.325 54.8775 60.6062C55.1475 60.0475 55.4575 59.5125 55.8063 59.005C56.2625 58.3387 56.7825 57.72 57.3587 57.1587C57.7987 56.7275 58.2725 56.3287 58.7738 55.9687C59.425 55.5 60.1238 55.0937 60.8613 54.7575C61.42 54.505 62.0012 54.2912 62.6 54.1237C63.3662 53.9075 64.1612 53.7662 64.98 53.705C65.285 53.6812 65.5925 53.67 65.9038 53.67C66.215 53.67 66.5225 53.6812 66.8275 53.705C67.645 53.7662 68.4412 53.9075 69.2062 54.1237C69.8062 54.2912 70.3862 54.5037 70.945 54.7575C71.6825 55.0925 72.3813 55.4987 73.0325 55.9675C73.535 56.3287 74.0075 56.7262 74.4487 57.1587C75.0238 57.72 75.545 58.3387 76.0013 59.005C76.3488 59.5112 76.6587 60.0462 76.9287 60.605V60.6062C77.2762 61.325 77.555 62.0837 77.7562 62.8737C77.9075 63.4649 78.0162 64.0737 78.0762 64.6962C78.1162 65.0925 78.1362 65.4962 78.1362 65.9037Z" fill="#F8F8F9"/>
<path d="M59.4835 31.6481V31.6336C59.4835 30.0945 58.4509 28.7926 57.0423 28.3826V27.9474C57.0423 27.4295 56.6226 27.0099 56.1048 27.0099C55.5869 27.0099 55.1673 27.4295 55.1673 27.9474V28.2475H54.601V27.9474C54.601 27.4295 54.1814 27.0099 53.6635 27.0099C53.1456 27.0099 52.726 27.4295 52.726 27.9474V28.2475H52.3968C51.8789 28.2475 51.4593 28.6671 51.4593 29.185C51.4593 29.7029 51.8789 30.1225 52.3968 30.1225H52.726V34.0966V38.0708H52.3968C51.8789 38.0708 51.4593 38.4904 51.4593 39.0083C51.4593 39.5261 51.8789 39.9458 52.3968 39.9458H52.726V40.246C52.726 40.7639 53.1456 41.1835 53.6635 41.1835C54.1814 41.1835 54.601 40.7639 54.601 40.246V39.9458H55.1673V40.246C55.1673 40.7639 55.5869 41.1835 56.1048 41.1835C56.6226 41.1835 57.0423 40.7639 57.0423 40.246V39.8106C58.4509 39.4005 59.4835 38.0988 59.4835 36.5596V36.5453C59.4835 35.5829 59.0793 34.7138 58.4326 34.0966C59.0794 33.4795 59.4835 32.6104 59.4835 31.6481ZM57.6085 36.5451V36.5595C57.6085 37.3928 56.9306 38.0706 56.0975 38.0706H54.6009V35.034H56.0975C56.9306 35.034 57.6085 35.7119 57.6085 36.5451ZM54.601 33.159V30.1224H56.0976C56.9308 30.1224 57.6086 30.8003 57.6086 31.6335V31.648C57.6086 32.4811 56.9308 33.159 56.0976 33.159H54.601Z" fill="#2A3052"/>
<path d="M69.6888 69.3924H65.6638V66.5844C66.0008 66.501 66.3774 66.4085 66.7988 66.306C67.3019 66.1837 67.6106 65.6768 67.4884 65.1735C67.366 64.6705 66.8593 64.3614 66.3559 64.4839C66.1103 64.5437 65.8805 64.5998 65.6638 64.653V60.691C65.6638 60.1732 65.2441 59.7535 64.7263 59.7535C64.2084 59.7535 63.7888 60.1732 63.7888 60.691V65.1227C62.9416 65.3403 62.6326 65.43 62.612 65.4362C62.1151 65.5814 61.8305 66.1018 61.9755 66.5987C62.0949 67.0078 62.4691 67.2735 62.8751 67.2735C62.9619 67.2735 63.0503 67.2613 63.1379 67.2358C63.1416 67.2347 63.3241 67.1819 63.7888 67.0599V70.3297C63.7888 70.8475 64.2084 71.2672 64.7263 71.2672H69.6888C70.2066 71.2672 70.6263 70.8475 70.6263 70.3297C70.6263 69.8118 70.2065 69.3924 69.6888 69.3924Z" fill="#2A3052"/>
<path d="M37.8788 58.742L34.1678 57.823C34.121 57.8113 34.0721 57.8113 34.0253 57.823L30.3143 58.742C30.0558 58.806 29.8505 58.523 29.9919 58.2971L33.8453 52.141C33.9614 51.9555 34.2315 51.9555 34.3476 52.141L38.201 58.2971C38.3425 58.523 38.1374 58.8061 37.8788 58.742Z" fill="#2A3052"/>
<path d="M30.6804 60.0293L33.9808 58.5559C34.0544 58.523 34.1386 58.523 34.2123 58.5559L37.5126 60.0293C37.688 60.1075 37.7368 60.3337 37.6091 60.4773L34.3088 64.1903C34.1958 64.3174 33.9973 64.3174 33.8843 64.1903L30.5839 60.4773C30.4564 60.3337 30.505 60.1075 30.6804 60.0293Z" fill="#2A3052"/>
<path d="M98.5714 1.42857V98.5714H1.42857V1.42857H98.5714ZM100 0H0V100H100V0Z" fill="#CDCCCC"/>
</svg>
